<svg width="158" height="36" viewBox="0 0 158 36" fill="none" xmlns="http://www.w3.org/2000/svg">
<g clip-path="url(#clip0_304_11339)">
<path d="M157.779 0.194458L63.2871 6.26058V28.9207L157.779 35.5216V0.194458Z" fill="#007DB4"/>
<path d="M88.8792 12.7345L83.7341 28.9208H79.7503L76.774 19.1139L73.7949 28.9208H69.8138L64.666 12.7345H69.1008L71.853 22.6737L74.7969 12.7345H78.7483L81.6922 22.7061L84.4444 12.7345H88.8792Z" fill="white"/>
<path d="M102.801 20.829C102.801 18.1092 100.891 16.2646 98.3009 16.2646C95.7108 16.2646 93.8337 18.1092 93.8337 20.829C93.8337 23.5488 95.7432 25.3934 98.3009 25.3934C100.859 25.3934 102.801 23.5488 102.801 20.829ZM106.976 12.7372V28.9235H102.801V27.014C101.634 28.4697 99.8863 29.3772 97.5231 29.3772C93.2179 29.3772 89.6582 25.6554 89.6582 20.8317C89.6582 16.008 93.2179 12.2862 97.5231 12.2862C99.8863 12.2862 101.634 13.191 102.801 14.6494V12.7399H106.976V12.7372Z" fill="white"/>
<path d="M116.364 16.7507V23.4839C116.364 25.2314 117.628 25.2638 120.021 25.1342V28.9208C114.163 29.569 112.186 27.8512 112.186 23.4812V16.748H109.369V12.7345H112.186V9.4665L116.362 8.2025V12.7345H120.019V16.748H116.362L116.364 16.7507Z" fill="white"/>
<path d="M121.641 20.829C121.641 16.0053 125.265 12.2835 130.186 12.2835C133.36 12.2835 136.109 13.9661 137.438 16.459L133.846 18.563C133.198 17.2369 131.807 16.3942 130.156 16.3942C127.664 16.3942 125.819 18.2389 125.819 20.829C125.819 23.4191 127.664 25.2314 130.156 25.2314C131.839 25.2314 133.233 24.4211 133.878 23.095L137.505 25.1666C136.112 27.6919 133.362 29.3745 130.189 29.3745C125.268 29.3745 121.643 25.65 121.643 20.829" fill="white"/>
<path d="M154.822 18.9843V28.9234H150.646V19.5029C150.646 17.3017 149.32 16.1673 147.44 16.1673C145.401 16.1673 143.881 17.3638 143.881 20.1808V28.9207H139.705V6.26057H143.881V14.5468C144.853 13.0883 146.536 12.2808 148.704 12.2808C152.137 12.2808 154.822 14.6764 154.822 18.9816" fill="white"/>
<path d="M15.3354 18.9843V28.9234H11.1599V19.5029C11.1599 17.3017 9.83379 16.1673 7.954 16.1673C5.91485 16.1673 4.39427 17.3638 4.39427 20.1808V28.9207H0.21875V6.26057H4.39427V14.5468C5.36658 13.0883 7.04921 12.2808 9.218 12.2808C12.6508 12.2808 15.3354 14.6764 15.3354 18.9816" fill="#B5C428"/>
<path d="M30.0246 19.3084C29.506 16.9776 27.7585 16.0404 26.0111 16.0404C23.7775 16.0404 22.2569 17.2369 21.7708 19.3084H30.0273H30.0246ZM26.3973 25.5879C28.0151 25.5879 29.3115 24.9073 30.0246 23.9701L33.3898 25.912C31.8692 28.1132 29.4412 29.3772 26.3325 29.3772C20.8957 29.3772 17.4629 25.6527 17.4629 20.8317C17.4629 16.0107 20.9281 12.2862 26.0084 12.2862C30.7997 12.2862 34.1974 16.0728 34.1974 20.8317C34.1974 21.4475 34.1326 21.9985 34.0353 22.5467H21.8302C22.4136 24.6831 24.1934 25.5906 26.3946 25.5906" fill="#B5C428"/>
<path d="M59.1111 20.829C59.1111 18.1092 57.2016 16.2645 54.6439 16.2645C52.0862 16.2645 50.1443 18.1092 50.1443 20.829C50.1443 23.5487 52.0538 25.3934 54.6439 25.3934C57.234 25.3934 59.1111 23.5487 59.1111 20.829ZM63.2866 6.26057V28.9207H59.1111V27.0112C57.947 28.4994 56.2293 29.3745 53.866 29.3745C49.5285 29.3745 45.9688 25.6527 45.9688 20.829C45.9688 16.0053 49.5285 12.2835 53.866 12.2835C56.2293 12.2835 57.947 13.1586 59.1111 14.6467V6.26328H63.2866V6.26057Z" fill="#B5C428"/>
<path d="M45.7259 12.7318V16.4104C45.7259 16.5427 45.6908 16.5995 45.4747 16.6049C42.4606 16.7048 40.8401 17.6879 40.8401 20.3482L40.8347 20.6561L40.8266 21.1315L40.832 28.5723C40.832 28.7425 40.6942 28.8775 40.5241 28.8802H36.2324V13.3908C36.2324 13.326 36.2324 13.1181 36.2324 12.9128C36.2324 12.6859 36.4701 12.5347 36.6727 12.6346L39.468 14.3226C39.5437 14.3604 39.6031 14.3659 39.7192 14.2848C41.4937 13.037 43.9758 12.4347 45.418 12.4266C45.5882 12.4266 45.7286 12.5617 45.7286 12.7318" fill="#B5C428"/>
</g>
<defs>
<clipPath id="clip0_304_11339">
<rect width="158" height="36" fill="white"/>
</clipPath>
</defs>
</svg>
